<svg width="121" height="121" viewBox="0 0 121 121" fill="none" xmlns="http://www.w3.org/2000/svg">
<g clip-path="url(#clip0_1552_21174)">
<g clip-path="url(#clip1_1552_21174)">
<path d="M117.567 1.71631H-3.43262V122.716H117.567V1.71631Z" fill="url(#paint0_linear_1552_21174)"/>
<path d="M84.8073 31.9663H55.6392C55.6392 39.2263 61.5248 45.1035 68.7951 45.1035H74.1613V50.2892C74.1613 57.5493 80.0468 63.4264 87.3172 63.4264V34.4727C87.3172 33.0899 86.1921 31.9663 84.8073 31.9663Z" fill="white"/>
<path d="M70.3533 46.4867H41.1853C41.1853 53.7467 47.0708 59.6239 54.3412 59.6239H59.7075V64.8096C59.7075 72.0696 65.593 77.9468 72.8634 77.9468V48.9931C72.9499 47.6103 71.8247 46.4867 70.3533 46.4867Z" fill="url(#paint1_linear_1552_21174)"/>
<path d="M55.9854 61.0061H26.8174C26.8174 68.2661 32.7029 74.1433 39.9733 74.1433H45.3394V79.329C45.3394 86.589 51.2251 92.4662 58.4954 92.4662V63.5125C58.4954 62.1297 57.3702 61.0061 55.9854 61.0061Z" fill="url(#paint2_linear_1552_21174)"/>
</g>
</g>
<defs>
<linearGradient id="paint0_linear_1552_21174" x1="117.567" y1="1.71631" x2="-3.4326" y2="122.716" gradientUnits="userSpaceOnUse">
<stop stop-color="#0052CC"/>
<stop offset="1" stop-color="#2684FF"/>
</linearGradient>
<linearGradient id="paint1_linear_1552_21174" x1="72.2965" y1="46.5183" x2="59.9041" y2="59.3163" gradientUnits="userSpaceOnUse">
<stop offset="0.176" stop-color="white" stop-opacity="0.4"/>
<stop offset="1" stop-color="white"/>
</linearGradient>
<linearGradient id="paint2_linear_1552_21174" x1="58.681" y1="61.1163" x2="44.3514" y2="75.0785" gradientUnits="userSpaceOnUse">
<stop offset="0.176" stop-color="white" stop-opacity="0.4"/>
<stop offset="1" stop-color="white"/>
</linearGradient>
<clipPath id="clip0_1552_21174">
<rect width="121" height="121" rx="30.25" fill="white"/>
</clipPath>
<clipPath id="clip1_1552_21174">
<path d="M-3.43262 31.9663C-3.43262 15.2597 10.1108 1.71631 26.8174 1.71631H87.3174C104.024 1.71631 117.567 15.2597 117.567 31.9663V92.4663C117.567 109.173 104.024 122.716 87.3174 122.716H26.8174C10.1108 122.716 -3.43262 109.173 -3.43262 92.4663V31.9663Z" fill="white"/>
</clipPath>
</defs>
</svg>
