<svg xmlns="http://www.w3.org/2000/svg" version="1.1" xmlns:xlink="http://www.w3.org/1999/xlink" xmlns:svgjs="http://svgjs.dev/svgjs" width="1500" height="1500" viewBox="0 0 1500 1500"><rect width="1500" height="1500" fill="#a83434"></rect><g transform="matrix(0.6666666666666666,0,0,0.6666666666666666,250.88393442622947,244.40971659919023)"><svg viewBox="0 0 244 247" data-background-color="#a83434" preserveAspectRatio="xMidYMid meet" height="1518" width="1500" xmlns="http://www.w3.org/2000/svg" xmlns:xlink="http://www.w3.org/1999/xlink"><g id="tight-bounds" transform="matrix(1,0,0,1,-0.21567999999999188,-0.09999999999999432)"><svg viewBox="0 0 244.43135999999998 247.2" height="247.2" width="244.43135999999998"><g><svg></svg></g><g><svg viewBox="0 0 244.43135999999998 247.2" height="247.2" width="244.43135999999998"><g transform="matrix(1,0,0,1,0,48.723024016875)"><svg viewBox="0 0 244.43135999999998 149.75395196624999" height="149.75395196624999" width="244.43135999999998"><g><svg viewBox="0 0 244.43135999999998 149.75395196624999" height="149.75395196624999" width="244.43135999999998"><g><svg viewBox="0 0 244.43135999999998 149.75395196624999" height="149.75395196624999" width="244.43135999999998"><g id="textblocktransform"><svg viewBox="0 0 244.43135999999998 149.75395196624999" height="149.75395196624999" width="244.43135999999998" id="textblock"><g><svg viewBox="0 0 244.43135999999998 149.75395196624999" height="149.75395196624999" width="244.43135999999998"><rect width="244.43135999999998" height="149.75395196624999" x="0" y="0" opacity="1" fill="#000000" data-fill-palette-color="tertiary"></rect><g transform="matrix(1,0,0,1,14.5894968,14.5894968)"><svg width="215.25236639999997" viewBox="3.25 -35.01 62.489999999999995 35.01" height="120.57495836624999" data-palette-color="#dedede"><path d="M10.25-13.99L10.25 0 3.25 0 3.25-35.01 10.25-35.01 10.25-21 24.24-21 24.24-35.01 31.25-35.01 31.25 0 24.24 0 24.24-13.99 10.25-13.99ZM44.75-7.01L44.75 0 37.74 0 37.74-35.01 44.75-35.01 44.75-17.5 57.79-35.01 65.74-35.01 54.69-20.24 65.74 0 57.79 0 50.1-14.16 44.75-7.01Z" opacity="1" transform="matrix(1,0,0,1,0,0)" fill="#dedede" class="wordmark-text-0" data-fill-palette-color="quaternary" id="text-0"></path></svg></g></svg></g></svg></g></svg></g><g></g></svg></g></svg></g><path d="M0 42.723L0 1 244.431 1 244.431 42.723 241.645 42.723 241.645 3.787 2.787 3.787 2.787 42.723 0 42.723M0 204.477L0 246.2 244.431 246.2 244.431 204.477 241.645 204.477 241.645 243.413 2.787 243.413 2.787 204.477 0 204.477" fill="#000000" stroke="transparent" data-fill-palette-color="tertiary"></path></svg></g><defs></defs></svg><rect width="244.43135999999998" height="247.2" fill="none" stroke="none" visibility="hidden"></rect></g></svg></g></svg>